<svg width="133" height="1883" viewBox="0 0 133 1883" fill="none" xmlns="http://www.w3.org/2000/svg">
<path d="M85.5 1C-61 129 74.5 299 79.5 472.5C84.5 646 35.5 725.5 26 850.5C16.5 975.5 99 1102 88 1221.5C77 1341 32.6035 1430.72 42.9999 1566C52.8157 1693.72 87.9999 1802.5 131 1882" stroke="#919AA6" stroke-width="2" stroke-linecap="round" stroke-dasharray="5 5"/>
<path d="M15.3707 98C13.7707 98 12.604 97.6333 11.8707 96.9C11.1374 96.1667 10.7707 95 10.7707 93.4V81.3C10.7707 79.7 11.1374 78.5333 11.8707 77.8C12.604 77.0667 13.7707 76.7 15.3707 76.7H25.5707V45.3H17.3707C15.7707 45.3 14.604 44.9333 13.8707 44.2C13.1374 43.4667 12.7707 42.3 12.7707 40.7V28.6C12.7707 27 13.1374 25.8333 13.8707 25.1C14.604 24.3667 15.7707 24 17.3707 24H46.3707C47.9707 24 49.1374 24.3667 49.8707 25.1C50.604 25.8333 50.9707 27 50.9707 28.6V76.7H59.5707C61.1707 76.7 62.3374 77.0667 63.0707 77.8C63.804 78.5333 64.1707 79.7 64.1707 81.3V93.4C64.1707 95 63.804 96.1667 63.0707 96.9C62.3374 97.6333 61.1707 98 59.5707 98H15.3707ZM59.5707 97C60.8374 97 61.7374 96.7333 62.2707 96.2C62.8707 95.6 63.1707 94.6667 63.1707 93.4V81.3C63.1707 80.0333 62.8707 79.1333 62.2707 78.6C61.7374 78 60.8374 77.7 59.5707 77.7H49.9707V28.6C49.9707 27.3333 49.6707 26.4333 49.0707 25.9C48.5374 25.3 47.6374 25 46.3707 25H17.3707C16.104 25 15.1707 25.3 14.5707 25.9C14.0374 26.4333 13.7707 27.3333 13.7707 28.6V40.7C13.7707 41.9667 14.0374 42.9 14.5707 43.5C15.1707 44.0333 16.104 44.3 17.3707 44.3H26.5707V77.7H15.3707C14.104 77.7 13.1707 78 12.5707 78.6C12.0374 79.1333 11.7707 80.0333 11.7707 81.3V93.4C11.7707 94.6667 12.0374 95.6 12.5707 96.2C13.1707 96.7333 14.104 97 15.3707 97H59.5707ZM20.7707 88.5V87.5H37.7707V35H22.7707V34H38.7707V87.5H54.1707V88.5H20.7707Z" fill="#5C5C5C"/>
<path d="M46.6664 444C45.0664 444 43.8997 443.633 43.1664 442.9C42.4331 442.167 42.0664 441 42.0664 439.4V422.2C42.0664 418.2 42.4664 414.9 43.2664 412.3C44.0664 409.633 45.1997 407.467 46.6664 405.8C48.1331 404.133 49.8664 402.833 51.8664 401.9C53.8664 400.9 56.0664 400.033 58.4664 399.3L71.8664 395.1C72.6664 394.9 73.1997 394.633 73.4664 394.3C73.7331 393.9 73.8664 393.3 73.8664 392.5C73.8664 391.833 73.7331 391.4 73.4664 391.2C73.1997 391 72.7664 390.9 72.1664 390.9H50.4664C48.8664 390.9 47.6997 390.533 46.9664 389.8C46.2331 389.067 45.8664 387.9 45.8664 386.3V374.6C45.8664 373 46.2331 371.833 46.9664 371.1C47.6997 370.367 48.8664 370 50.4664 370H79.9664C85.9664 370 90.5664 371.533 93.7664 374.6C96.9664 377.6 98.5664 381.933 98.5664 387.6V397C98.5664 402.267 97.0997 406.3 94.1664 409.1C91.2997 411.9 87.3331 414.1 82.2664 415.7L68.6664 420C67.9997 420.2 67.4997 420.4 67.1664 420.6C66.8997 420.733 66.7664 421.2 66.7664 422V423.1H94.2664C95.8664 423.1 97.0331 423.467 97.7664 424.2C98.4997 424.933 98.8664 426.1 98.8664 427.7V439.4C98.8664 441 98.4997 442.167 97.7664 442.9C97.0331 443.633 95.8664 444 94.2664 444H46.6664ZM94.2664 443C95.5331 443 96.4331 442.733 96.9664 442.2C97.5664 441.6 97.8664 440.667 97.8664 439.4V427.7C97.8664 426.433 97.5664 425.533 96.9664 425C96.4331 424.4 95.5331 424.1 94.2664 424.1H65.7664V422C65.7664 420.933 65.9331 420.233 66.2664 419.9C66.6664 419.567 67.3664 419.267 68.3664 419L81.9664 414.7C86.7664 413.233 90.5664 411.167 93.3664 408.5C96.1664 405.833 97.5664 402 97.5664 397V387.6C97.5664 382.2 96.0331 378.1 92.9664 375.3C89.9664 372.433 85.6331 371 79.9664 371H50.4664C49.1997 371 48.2664 371.3 47.6664 371.9C47.1331 372.433 46.8664 373.333 46.8664 374.6V386.3C46.8664 387.567 47.1331 388.5 47.6664 389.1C48.2664 389.633 49.1997 389.9 50.4664 389.9H72.1664C73.1664 389.9 73.8664 390.1 74.2664 390.5C74.6664 390.833 74.8664 391.5 74.8664 392.5C74.8664 393.567 74.6664 394.367 74.2664 394.9C73.9331 395.433 73.2331 395.833 72.1664 396.1L58.7664 400.3C56.4997 400.967 54.3997 401.767 52.4664 402.7C50.5331 403.633 48.8664 404.9 47.4664 406.5C46.0664 408.1 44.9664 410.167 44.1664 412.7C43.4331 415.167 43.0664 418.333 43.0664 422.2V439.4C43.0664 440.667 43.3331 441.6 43.8664 442.2C44.4664 442.733 45.3997 443 46.6664 443H94.2664ZM59.4664 410.2L82.7664 402.5C83.6331 402.167 84.3331 401.633 84.8664 400.9C85.3997 400.1 85.6664 399.067 85.6664 397.8V388.7C85.6664 385.633 84.7997 383.6 83.0664 382.6C81.3331 381.533 78.9664 381 75.9664 381H55.8664V380H75.9664C79.3664 380 81.9997 380.633 83.8664 381.9C85.7331 383.1 86.6664 385.367 86.6664 388.7V397.8C86.6664 399.333 86.3331 400.533 85.6664 401.4C85.0664 402.267 84.2331 402.933 83.1664 403.4L59.8664 411.1C57.9997 411.767 56.6997 412.6 55.9664 413.6C55.2331 414.533 54.8664 416.133 54.8664 418.4V433H88.8664V434H53.9664V418.4C53.9664 415.933 54.3664 414.133 55.1664 413C55.9664 411.8 57.3997 410.867 59.4664 410.2Z" fill="#5C5C5C"/>
<path d="M20.6641 790C19.0641 790 17.8974 789.633 17.1641 788.9C16.4307 788.167 16.0641 787 16.0641 785.4V773.7C16.0641 772.1 16.4307 770.933 17.1641 770.2C17.8974 769.467 19.0641 769.1 20.6641 769.1H45.7641C46.8307 769.1 47.5641 768.933 47.9641 768.6C48.3641 768.2 48.5641 767.7 48.5641 767.1V764.4C48.5641 763.8 48.3641 763.333 47.9641 763C47.5641 762.667 46.8307 762.5 45.7641 762.5H28.7641C27.1641 762.5 25.9974 762.133 25.2641 761.4C24.5307 760.667 24.1641 759.5 24.1641 757.9V747.2C24.1641 745.6 24.5307 744.433 25.2641 743.7C25.9974 742.967 27.1641 742.6 28.7641 742.6H39.2641C40.3307 742.6 41.0641 742.433 41.4641 742.1C41.8641 741.7 42.0641 741.2 42.0641 740.6V739.1C42.0641 738.5 41.8641 738.033 41.4641 737.7C41.0641 737.3 40.3307 737.1 39.2641 737.1H20.6641C19.0641 737.1 17.8974 736.733 17.1641 736C16.4307 735.267 16.0641 734.1 16.0641 732.5V720.6C16.0641 719 16.4307 717.833 17.1641 717.1C17.8974 716.367 19.0641 716 20.6641 716H48.5641C54.4974 716 58.8641 717.4 61.6641 720.2C64.5307 723 65.9641 726.7 65.9641 731.3V737.1C65.9641 739.367 65.6641 741.367 65.0641 743.1C64.4641 744.833 63.4307 746.267 61.9641 747.4C65.9641 748.267 68.7307 749.933 70.2641 752.4C71.8641 754.867 72.6641 758.2 72.6641 762.4V772.4C72.6641 777.8 70.9307 782.1 67.4641 785.3C64.0641 788.433 58.9974 790 52.2641 790H20.6641ZM20.6641 770.1C19.3974 770.1 18.4641 770.4 17.8641 771C17.3307 771.533 17.0641 772.433 17.0641 773.7V785.4C17.0641 786.667 17.3307 787.6 17.8641 788.2C18.4641 788.733 19.3974 789 20.6641 789H52.2641C58.6641 789 63.4974 787.533 66.7641 784.6C70.0307 781.6 71.6641 777.533 71.6641 772.4V762.4C71.6641 758 70.7307 754.633 68.8641 752.3C67.0641 749.9 63.7974 748.433 59.0641 747.9C61.2641 746.967 62.7974 745.567 63.6641 743.7C64.5307 741.833 64.9641 739.633 64.9641 737.1V731.3C64.9641 726.9 63.5974 723.433 60.8641 720.9C58.1974 718.3 54.0974 717 48.5641 717H20.6641C19.3974 717 18.4641 717.3 17.8641 717.9C17.3307 718.433 17.0641 719.333 17.0641 720.6V732.5C17.0641 733.767 17.3307 734.7 17.8641 735.3C18.4641 735.833 19.3974 736.1 20.6641 736.1H39.2641C40.8641 736.1 41.8974 736.4 42.3641 737C42.8307 737.6 43.0641 738.3 43.0641 739.1V740.6C43.0641 741.4 42.8307 742.1 42.3641 742.7C41.8974 743.3 40.8641 743.6 39.2641 743.6H28.7641C27.4974 743.6 26.5641 743.9 25.9641 744.5C25.4307 745.033 25.1641 745.933 25.1641 747.2V757.9C25.1641 759.167 25.4307 760.1 25.9641 760.7C26.5641 761.233 27.4974 761.5 28.7641 761.5H45.7641C47.3641 761.5 48.3974 761.8 48.8641 762.4C49.3307 762.933 49.5641 763.6 49.5641 764.4V767.1C49.5641 767.9 49.3307 768.6 48.8641 769.2C48.3974 769.8 47.3641 770.1 45.7641 770.1H20.6641ZM34.1641 753.1V752.1H42.4641C44.9974 752.1 46.9974 751.867 48.4641 751.4C49.9307 750.867 51.0307 750.2 51.7641 749.4C52.5641 748.533 53.0641 747.567 53.2641 746.5C53.4641 745.367 53.5641 744.2 53.5641 743V736.2C53.5641 733.6 52.7641 731.433 51.1641 729.7C49.5641 727.9 46.3307 727 41.4641 727H26.0641V726H41.4641C44.1974 726 46.4307 726.3 48.1641 726.9C49.8974 727.433 51.2307 728.2 52.1641 729.2C53.0974 730.133 53.7307 731.233 54.0641 732.5C54.3974 733.767 54.5641 735.133 54.5641 736.6V743C54.5641 744.867 54.1974 746.733 53.4641 748.6C52.7974 750.4 50.9641 751.633 47.9641 752.3H49.5641C53.6974 752.3 56.6641 753.233 58.4641 755.1C60.2641 756.967 61.1641 759.633 61.1641 763.1V770C61.1641 771.467 60.9974 772.833 60.6641 774.1C60.3307 775.3 59.6974 776.333 58.7641 777.2C57.8974 778.067 56.5974 778.767 54.8641 779.3C53.1307 779.767 50.8641 780 48.0641 780H26.0641V779H48.0641C53.0641 779 56.3307 778.2 57.8641 776.6C59.3974 774.933 60.1641 772.733 60.1641 770V763.1C60.1641 759.767 59.2974 757.267 57.5641 755.6C55.8974 753.933 53.1641 753.1 49.3641 753.1H34.1641Z" fill="#5C5C5C"/>
<path d="M74.5508 1136C72.9508 1136 71.7841 1135.63 71.0508 1134.9C70.3174 1134.17 69.9508 1133 69.9508 1131.4V1119.3H54.0508C47.1841 1119.3 42.2508 1117.87 39.2508 1115C36.3174 1112.13 34.8508 1107.7 34.8508 1101.7V1066.6C34.8508 1065 35.2174 1063.83 35.9508 1063.1C36.6841 1062.37 37.8508 1062 39.4508 1062H54.9508C56.5508 1062 57.7174 1062.37 58.4508 1063.1C59.1841 1063.83 59.5508 1065 59.5508 1066.6V1094C59.5508 1094.67 59.7174 1095.23 60.0508 1095.7C60.4508 1096.17 60.9841 1096.4 61.6508 1096.4H69.9508V1066.6C69.9508 1065 70.3174 1063.83 71.0508 1063.1C71.7841 1062.37 72.9508 1062 74.5508 1062H89.9508C91.5508 1062 92.7175 1062.37 93.4508 1063.1C94.1841 1063.83 94.5508 1065 94.5508 1066.6V1131.4C94.5508 1133 94.1841 1134.17 93.4508 1134.9C92.7175 1135.63 91.5508 1136 89.9508 1136H74.5508ZM70.9508 1118.3V1131.4C70.9508 1132.67 71.2175 1133.6 71.7508 1134.2C72.3508 1134.73 73.2841 1135 74.5508 1135H89.9508C91.2175 1135 92.1175 1134.73 92.6508 1134.2C93.2508 1133.6 93.5508 1132.67 93.5508 1131.4V1066.6C93.5508 1065.33 93.2508 1064.43 92.6508 1063.9C92.1175 1063.3 91.2175 1063 89.9508 1063H74.5508C73.2841 1063 72.3508 1063.3 71.7508 1063.9C71.2175 1064.43 70.9508 1065.33 70.9508 1066.6V1097.4H61.6508C60.7174 1097.4 59.9508 1097.1 59.3508 1096.5C58.8174 1095.9 58.5508 1095.07 58.5508 1094V1066.6C58.5508 1065.33 58.2508 1064.43 57.6508 1063.9C57.1174 1063.3 56.2174 1063 54.9508 1063H39.4508C38.1841 1063 37.2508 1063.3 36.6508 1063.9C36.1174 1064.43 35.8508 1065.33 35.8508 1066.6V1101.7C35.8508 1107.37 37.2508 1111.57 40.0508 1114.3C42.9174 1116.97 47.5841 1118.3 54.0508 1118.3H70.9508ZM81.7508 1126V1108.3H57.8508C54.0508 1108.3 51.2508 1107.43 49.4508 1105.7C47.6508 1103.9 46.7508 1101.27 46.7508 1097.8V1072H47.7508V1097.8C47.7508 1101 48.5841 1103.4 50.2508 1105C51.9174 1106.53 54.4508 1107.3 57.8508 1107.3H81.7508V1072H82.7508V1126H81.7508Z" fill="#5C5C5C"/>
<path d="M31.727 1482C30.127 1482 28.9603 1481.63 28.227 1480.9C27.4936 1480.17 27.127 1479 27.127 1477.4V1465.7C27.127 1464.1 27.4936 1462.93 28.227 1462.2C28.9603 1461.47 30.127 1461.1 31.727 1461.1H57.527C57.9936 1461.1 58.3936 1461 58.727 1460.8C59.0603 1460.6 59.227 1460.27 59.227 1459.8V1455.9C59.227 1455.43 59.0603 1455.1 58.727 1454.9C58.3936 1454.7 57.9936 1454.6 57.527 1454.6H32.727C31.127 1454.6 29.9603 1454.23 29.227 1453.5C28.4936 1452.77 28.127 1451.6 28.127 1450V1412.6C28.127 1411 28.4936 1409.83 29.227 1409.1C29.9603 1408.37 31.127 1408 32.727 1408H75.827C77.427 1408 78.5936 1408.37 79.327 1409.1C80.0603 1409.83 80.427 1411 80.427 1412.6V1424.5C80.427 1426.1 80.0603 1427.27 79.327 1428C78.5936 1428.73 77.427 1429.1 75.827 1429.1H52.827V1433.6H65.527C71.2603 1433.6 75.7603 1435.03 79.027 1437.9C82.3603 1440.7 84.027 1444.9 84.027 1450.5V1464.4C84.027 1469.73 82.1936 1474 78.527 1477.2C74.8603 1480.4 69.8603 1482 63.527 1482H31.727ZM63.527 1481C69.527 1481 74.2603 1479.5 77.727 1476.5C81.2603 1473.5 83.027 1469.47 83.027 1464.4V1450.5C83.027 1445.23 81.4603 1441.27 78.327 1438.6C75.1936 1435.93 70.927 1434.6 65.527 1434.6H51.827V1428.1H75.827C77.0936 1428.1 77.9936 1427.83 78.527 1427.3C79.127 1426.7 79.427 1425.77 79.427 1424.5V1412.6C79.427 1411.33 79.127 1410.43 78.527 1409.9C77.9936 1409.3 77.0936 1409 75.827 1409H32.727C31.4603 1409 30.527 1409.3 29.927 1409.9C29.3936 1410.43 29.127 1411.33 29.127 1412.6V1450C29.127 1451.27 29.3936 1452.2 29.927 1452.8C30.527 1453.33 31.4603 1453.6 32.727 1453.6H57.527C58.327 1453.6 58.9603 1453.8 59.427 1454.2C59.9603 1454.53 60.227 1455.1 60.227 1455.9V1459.8C60.227 1460.6 59.9603 1461.2 59.427 1461.6C58.9603 1461.93 58.327 1462.1 57.527 1462.1H31.727C30.4603 1462.1 29.527 1462.4 28.927 1463C28.3936 1463.53 28.127 1464.43 28.127 1465.7V1477.4C28.127 1478.67 28.3936 1479.6 28.927 1480.2C29.527 1480.73 30.4603 1481 31.727 1481H63.527ZM37.127 1472V1471H60.727C64.4603 1471 67.127 1470.3 68.727 1468.9C70.327 1467.5 71.127 1465.27 71.127 1462.2V1453.4C71.127 1450.27 70.2936 1448.03 68.627 1446.7C67.027 1445.3 64.6936 1444.6 61.627 1444.6H40.027V1418H70.427V1419H41.027V1443.6H61.627C65.0936 1443.6 67.6936 1444.4 69.427 1446C71.227 1447.53 72.127 1450 72.127 1453.4V1462.2C72.127 1465.6 71.2603 1468.1 69.527 1469.7C67.7936 1471.23 64.8603 1472 60.727 1472H37.127Z" fill="#5C5C5C"/>
<path d="M97.132 1829.5C90.732 1829.5 85.4987 1828.97 81.432 1827.9C77.3654 1826.9 74.1987 1825.47 71.932 1823.6C69.6654 1821.73 68.132 1819.5 67.332 1816.9C66.532 1814.3 66.132 1811.43 66.132 1808.3V1775.5C66.132 1772.37 66.532 1769.47 67.332 1766.8C68.132 1764.13 69.4987 1761.87 71.432 1760C73.432 1758.13 76.0654 1756.67 79.332 1755.6C82.6654 1754.53 86.7987 1754 91.732 1754H114.732C116.399 1754 117.565 1754.37 118.232 1755.1C118.965 1755.83 119.332 1757 119.332 1758.6V1770.4C119.332 1772 118.965 1773.17 118.232 1773.9C117.499 1774.63 116.332 1775 114.732 1775H96.032C93.9654 1775 92.5654 1775.33 91.832 1776C91.0987 1776.6 90.732 1777.93 90.732 1780V1780.8C92.2654 1780.47 93.9987 1780.2 95.932 1780C97.932 1779.8 100.099 1779.7 102.432 1779.7C107.165 1779.7 111.099 1780.13 114.232 1781C117.432 1781.8 119.965 1783 121.832 1784.6C123.699 1786.13 124.999 1788.1 125.732 1790.5C126.532 1792.9 126.932 1795.63 126.932 1798.7V1808.3C126.932 1811.43 126.499 1814.3 125.632 1816.9C124.765 1819.5 123.232 1821.73 121.032 1823.6C118.832 1825.47 115.799 1826.9 111.932 1827.9C108.065 1828.97 103.132 1829.5 97.132 1829.5ZM97.132 1828.5C102.865 1828.5 107.599 1828 111.332 1827C115.065 1826.07 117.999 1824.73 120.132 1823C122.332 1821.2 123.832 1819.07 124.632 1816.6C125.499 1814.13 125.932 1811.37 125.932 1808.3V1798.7C125.932 1792.77 124.265 1788.3 120.932 1785.3C117.599 1782.23 111.432 1780.7 102.432 1780.7C99.7654 1780.7 97.3654 1780.83 95.232 1781.1C93.1654 1781.37 91.332 1781.73 89.732 1782.2V1780C89.732 1777.53 90.1654 1775.93 91.032 1775.2C91.8987 1774.4 93.5654 1774 96.032 1774H114.732C115.999 1774 116.899 1773.73 117.432 1773.2C118.032 1772.6 118.332 1771.67 118.332 1770.4V1758.6C118.332 1757.33 118.032 1756.43 117.432 1755.9C116.899 1755.3 115.999 1755 114.732 1755H91.732C82.332 1755 75.8654 1756.9 72.332 1760.7C68.8654 1764.5 67.132 1769.43 67.132 1775.5V1808.3C67.132 1811.37 67.532 1814.13 68.332 1816.6C69.1987 1819.07 70.732 1821.2 72.932 1823C75.132 1824.73 78.1654 1826.07 82.032 1827C85.9654 1828 90.9987 1828.5 97.132 1828.5ZM97.432 1819.9C94.7654 1819.9 92.2654 1819.8 89.932 1819.6C87.5987 1819.33 85.5654 1818.8 83.832 1818C82.0987 1817.2 80.732 1816.03 79.732 1814.5C78.7987 1812.9 78.332 1810.83 78.332 1808.3V1775.5C78.332 1771.1 79.4987 1768.1 81.832 1766.5C84.232 1764.83 87.532 1764 91.732 1764H109.332V1765H91.732C87.932 1765 84.8987 1765.73 82.632 1767.2C80.432 1768.6 79.332 1771.37 79.332 1775.5V1794.3C80.532 1791.63 82.7987 1790.03 86.132 1789.5C89.4654 1788.97 93.332 1788.7 97.732 1788.7C100.199 1788.7 102.465 1788.8 104.532 1789C106.665 1789.13 108.499 1789.57 110.032 1790.3C111.632 1790.97 112.865 1792.03 113.732 1793.5C114.665 1794.97 115.132 1796.97 115.132 1799.5V1808.3C115.132 1810.83 114.665 1812.87 113.732 1814.4C112.865 1815.93 111.632 1817.1 110.032 1817.9C108.432 1818.7 106.532 1819.23 104.332 1819.5C102.199 1819.77 99.8987 1819.9 97.432 1819.9ZM97.432 1818.9C99.6987 1818.9 101.832 1818.8 103.832 1818.6C105.899 1818.4 107.699 1817.93 109.232 1817.2C110.765 1816.47 111.965 1815.4 112.832 1814C113.699 1812.53 114.132 1810.63 114.132 1808.3V1799.5C114.132 1797.1 113.665 1795.23 112.732 1793.9C111.865 1792.57 110.699 1791.6 109.232 1791C107.765 1790.33 106.032 1789.97 104.032 1789.9C102.032 1789.77 99.932 1789.7 97.732 1789.7C95.532 1789.7 93.332 1789.73 91.132 1789.8C88.932 1789.87 86.9654 1790.2 85.232 1790.8C83.4987 1791.4 82.0654 1792.37 80.932 1793.7C79.8654 1794.97 79.332 1796.8 79.332 1799.2V1808.3C79.332 1810.7 79.7987 1812.63 80.732 1814.1C81.732 1815.5 83.032 1816.57 84.632 1817.3C86.2987 1817.97 88.232 1818.4 90.432 1818.6C92.632 1818.8 94.9654 1818.9 97.432 1818.9ZM89.732 1800.8C89.732 1799.8 90.132 1798.97 90.932 1798.3C91.732 1797.57 93.5654 1797.2 96.432 1797.2C99.432 1797.2 101.332 1797.57 102.132 1798.3C102.932 1798.97 103.332 1799.8 103.332 1800.8V1806.7C103.332 1807.77 102.932 1808.67 102.132 1809.4C101.332 1810.07 99.432 1810.4 96.432 1810.4C93.5654 1810.4 91.732 1810.07 90.932 1809.4C90.132 1808.67 89.732 1807.77 89.732 1806.7V1800.8ZM96.432 1798.2C94.3654 1798.2 92.8987 1798.43 92.032 1798.9C91.1654 1799.3 90.732 1799.93 90.732 1800.8V1806.7C90.732 1807.57 91.1654 1808.23 92.032 1808.7C92.8987 1809.17 94.3654 1809.4 96.432 1809.4C98.632 1809.4 100.165 1809.17 101.032 1808.7C101.899 1808.23 102.332 1807.57 102.332 1806.7V1800.8C102.332 1799.93 101.865 1799.3 100.932 1798.9C100.065 1798.43 98.5654 1798.2 96.432 1798.2Z" fill="#5C5C5C"/>
<circle cx="38" cy="62" r="9.5" stroke="#FF13BD"/>
<g filter="url(#filter0_d_95_3)">
<circle cx="38" cy="62.0001" r="6.09756" fill="#FF00B8"/>
</g>
<circle cx="72" cy="408" r="9.5" stroke="#FF13BD"/>
<g filter="url(#filter1_d_95_3)">
<circle cx="72" cy="408" r="6.09756" fill="#FF00B8"/>
</g>
<circle cx="41" cy="753" r="9.5" stroke="#FF13BD"/>
<g filter="url(#filter2_d_95_3)">
<circle cx="41" cy="753" r="6.09756" fill="#FF00B8"/>
</g>
<circle cx="75" cy="1106" r="9.5" stroke="#FF13BD"/>
<g filter="url(#filter3_d_95_3)">
<circle cx="75" cy="1106" r="6.09756" fill="#FF00B8"/>
</g>
<circle cx="47" cy="1444" r="9.5" stroke="#FF13BD"/>
<g filter="url(#filter4_d_95_3)">
<circle cx="47" cy="1444" r="6.09756" fill="#FF00B8"/>
</g>
<circle cx="91" cy="1792" r="9.5" stroke="#FF13BD"/>
<g filter="url(#filter5_d_95_3)">
<circle cx="91" cy="1792" r="6.09756" fill="#FF00B8"/>
</g>
<defs>
<filter id="filter0_d_95_3" x="16.9025" y="40.9026" width="42.1951" height="42.1951" filterUnits="userSpaceOnUse" color-interpolation-filters="sRGB">
<feFlood flood-opacity="0" result="BackgroundImageFix"/>
<feColorMatrix in="SourceAlpha" type="matrix" values="0 0 0 0 0 0 0 0 0 0 0 0 0 0 0 0 0 0 127 0" result="hardAlpha"/>
<feOffset/>
<feGaussianBlur stdDeviation="7.5"/>
<feComposite in2="hardAlpha" operator="out"/>
<feColorMatrix type="matrix" values="0 0 0 0 1 0 0 0 0 0 0 0 0 0 0.720339 0 0 0 1 0"/>
<feBlend mode="normal" in2="BackgroundImageFix" result="effect1_dropShadow_95_3"/>
<feBlend mode="normal" in="SourceGraphic" in2="effect1_dropShadow_95_3" result="shape"/>
</filter>
<filter id="filter1_d_95_3" x="50.9025" y="386.902" width="42.1951" height="42.1951" filterUnits="userSpaceOnUse" color-interpolation-filters="sRGB">
<feFlood flood-opacity="0" result="BackgroundImageFix"/>
<feColorMatrix in="SourceAlpha" type="matrix" values="0 0 0 0 0 0 0 0 0 0 0 0 0 0 0 0 0 0 127 0" result="hardAlpha"/>
<feOffset/>
<feGaussianBlur stdDeviation="7.5"/>
<feComposite in2="hardAlpha" operator="out"/>
<feColorMatrix type="matrix" values="0 0 0 0 1 0 0 0 0 0 0 0 0 0 0.720339 0 0 0 1 0"/>
<feBlend mode="normal" in2="BackgroundImageFix" result="effect1_dropShadow_95_3"/>
<feBlend mode="normal" in="SourceGraphic" in2="effect1_dropShadow_95_3" result="shape"/>
</filter>
<filter id="filter2_d_95_3" x="19.9025" y="731.902" width="42.1951" height="42.1951" filterUnits="userSpaceOnUse" color-interpolation-filters="sRGB">
<feFlood flood-opacity="0" result="BackgroundImageFix"/>
<feColorMatrix in="SourceAlpha" type="matrix" values="0 0 0 0 0 0 0 0 0 0 0 0 0 0 0 0 0 0 127 0" result="hardAlpha"/>
<feOffset/>
<feGaussianBlur stdDeviation="7.5"/>
<feComposite in2="hardAlpha" operator="out"/>
<feColorMatrix type="matrix" values="0 0 0 0 1 0 0 0 0 0 0 0 0 0 0.720339 0 0 0 1 0"/>
<feBlend mode="normal" in2="BackgroundImageFix" result="effect1_dropShadow_95_3"/>
<feBlend mode="normal" in="SourceGraphic" in2="effect1_dropShadow_95_3" result="shape"/>
</filter>
<filter id="filter3_d_95_3" x="53.9025" y="1084.9" width="42.1951" height="42.1951" filterUnits="userSpaceOnUse" color-interpolation-filters="sRGB">
<feFlood flood-opacity="0" result="BackgroundImageFix"/>
<feColorMatrix in="SourceAlpha" type="matrix" values="0 0 0 0 0 0 0 0 0 0 0 0 0 0 0 0 0 0 127 0" result="hardAlpha"/>
<feOffset/>
<feGaussianBlur stdDeviation="7.5"/>
<feComposite in2="hardAlpha" operator="out"/>
<feColorMatrix type="matrix" values="0 0 0 0 1 0 0 0 0 0 0 0 0 0 0.720339 0 0 0 1 0"/>
<feBlend mode="normal" in2="BackgroundImageFix" result="effect1_dropShadow_95_3"/>
<feBlend mode="normal" in="SourceGraphic" in2="effect1_dropShadow_95_3" result="shape"/>
</filter>
<filter id="filter4_d_95_3" x="25.9025" y="1422.9" width="42.1951" height="42.1951" filterUnits="userSpaceOnUse" color-interpolation-filters="sRGB">
<feFlood flood-opacity="0" result="BackgroundImageFix"/>
<feColorMatrix in="SourceAlpha" type="matrix" values="0 0 0 0 0 0 0 0 0 0 0 0 0 0 0 0 0 0 127 0" result="hardAlpha"/>
<feOffset/>
<feGaussianBlur stdDeviation="7.5"/>
<feComposite in2="hardAlpha" operator="out"/>
<feColorMatrix type="matrix" values="0 0 0 0 1 0 0 0 0 0 0 0 0 0 0.720339 0 0 0 1 0"/>
<feBlend mode="normal" in2="BackgroundImageFix" result="effect1_dropShadow_95_3"/>
<feBlend mode="normal" in="SourceGraphic" in2="effect1_dropShadow_95_3" result="shape"/>
</filter>
<filter id="filter5_d_95_3" x="69.9025" y="1770.9" width="42.1951" height="42.1951" filterUnits="userSpaceOnUse" color-interpolation-filters="sRGB">
<feFlood flood-opacity="0" result="BackgroundImageFix"/>
<feColorMatrix in="SourceAlpha" type="matrix" values="0 0 0 0 0 0 0 0 0 0 0 0 0 0 0 0 0 0 127 0" result="hardAlpha"/>
<feOffset/>
<feGaussianBlur stdDeviation="7.5"/>
<feComposite in2="hardAlpha" operator="out"/>
<feColorMatrix type="matrix" values="0 0 0 0 1 0 0 0 0 0 0 0 0 0 0.720339 0 0 0 1 0"/>
<feBlend mode="normal" in2="BackgroundImageFix" result="effect1_dropShadow_95_3"/>
<feBlend mode="normal" in="SourceGraphic" in2="effect1_dropShadow_95_3" result="shape"/>
</filter>
</defs>
</svg>
