<svg width="724" height="405" viewBox="0 0 724 405" fill="none" xmlns="http://www.w3.org/2000/svg">
<circle cx="509" cy="72" r="18" fill="#65C39B"/>
<circle cx="680.5" cy="125.5" r="11.5" fill="#FF3E33"/>
<circle cx="582.5" cy="155.5" r="41.5" fill="#F7B500"/>
<path d="M-1 0V403.5C-1 403.5 668 405 635.5 403.5C603 402 581.5 370 582.5 350.5C583.5 331 598.5 315 618 315H680.5C707.5 315 724 295.524 724 271.5C724 247.476 707 228 680.5 228H329.5C313.5 228 303.5 216.359 303.5 202C303.5 187.641 312.5 176 329.5 176H527C546.5 176 558.5 161.897 558.5 144.5C558.5 127.103 548 113 527 113H425.5C404 113 392.153 103.56 392 87C391.846 70.3198 400 60.5 425.5 60.5C451 60.5 465.099 48.0197 464 28.5C462.949 9.82308 450.5 0 425.5 0H-1Z" fill="#EFF4FF"/>
<path d="M73.2513 70.8039C75.3193 75.3559 74.6608 79.1516 71.7345 83.1143C68.1547 87.9658 69.0033 87.2685 65.3747 92.1003C61.351 97.4575 61.6192 101.789 67.5304 105.128C67.4426 108.398 62.9019 109.743 60.3463 110.367C56.981 109.871 54.6887 106.625 53.606 103.63C52.0648 99.3726 52.5867 94.472 54.4059 90.3718C60.9315 78.9896 62.9214 74.6733 69.4861 63.3107C70.7347 66.2667 71.9881 67.8577 73.2513 70.8039Z" fill="black"/>
<path d="M67.5303 105.128C67.5303 105.128 66.75 104.902 65.4331 104.45C59.1806 102.319 50.6065 98.5525 54.4058 90.3718C53.0353 92.7828 52.1282 95.3706 51.4941 97.9633C49.6164 105.682 54.4399 114.752 57.615 121.695C59.1416 125.034 63.4237 124.087 65.3795 121.656C67.5303 118.98 69.7933 116.043 71.8662 113.436C75.0461 109.439 71.2858 106.198 67.5303 105.128Z" fill="#ED1C24"/>
<path d="M70.8908 135.832C68.8229 131.28 69.4813 127.485 72.4076 123.522C75.9923 118.67 75.1388 119.819 78.7675 114.988C82.7863 109.635 82.5229 105.295 76.6117 101.96C76.6995 98.69 81.2402 97.3446 83.7958 96.7161C87.1611 97.212 89.4485 100.463 90.5361 103.453C92.0773 107.706 91.5555 112.611 89.7363 116.711C83.2106 128.093 81.2207 130.966 74.656 142.324" fill="black"/>
<path d="M76.6117 101.96C76.6117 101.96 77.392 102.186 78.7089 102.638C84.9663 104.769 93.5355 108.535 89.7362 116.716C91.1116 114.31 92.0139 111.717 92.6479 109.125C94.5256 101.406 89.7021 92.336 86.527 85.3927C85.0005 82.0537 80.7183 82.9965 78.7625 85.4271C76.6117 88.1033 74.3487 91.0397 72.2759 93.6471C69.0959 97.6491 72.8562 100.89 76.6117 101.96Z" fill="#ED1C24"/>
<path d="M72.9635 57.2168C72.9635 57.2168 74.1438 60.06 76.0703 63.3155C78.0894 66.7234 77.5822 69.5223 77.5822 69.5223L83.8543 57.2217L77.9626 48.0393L72.9635 57.2168Z" fill="black"/>
<path d="M81.0255 70.7302L84.3908 76.6571L87.0293 71.6387L83.7177 65.5792L81.0255 70.7302Z" fill="#ED1C24"/>
<path d="M85.0736 63.1142L86.7367 66.2029L88.0438 63.7575L86.4002 60.5952L85.0736 63.1142Z" fill="#ED1C24"/>
<path d="M86.7806 77.3985L88.4438 80.4921L89.746 78.0418L88.1072 74.8844L86.7806 77.3985Z" fill="black"/>
<path d="M208.714 120.316V131.118H207.415V120.316H208.714ZM210.732 121.477V120.316H218.779V121.477H215.405V131.118H214.106V121.477H210.732ZM230.8 123.017C230.737 122.482 230.482 122.067 230.035 121.772C229.588 121.477 229.04 121.329 228.39 121.329C227.915 121.329 227.5 121.406 227.143 121.561C226.791 121.716 226.515 121.929 226.316 122.199C226.12 122.47 226.023 122.778 226.023 123.123C226.023 123.411 226.09 123.659 226.227 123.866C226.366 124.07 226.544 124.241 226.761 124.378C226.977 124.511 227.205 124.622 227.442 124.71C227.679 124.795 227.898 124.863 228.097 124.916L229.186 125.211C229.466 125.285 229.776 125.387 230.119 125.517C230.465 125.647 230.795 125.825 231.109 126.05C231.427 126.271 231.689 126.556 231.895 126.904C232.101 127.252 232.204 127.679 232.204 128.186C232.204 128.77 232.052 129.297 231.748 129.768C231.448 130.239 231.008 130.613 230.428 130.891C229.852 131.169 229.152 131.308 228.327 131.308C227.559 131.308 226.894 131.183 226.331 130.934C225.773 130.684 225.332 130.336 225.011 129.889C224.693 129.443 224.513 128.924 224.472 128.334H225.813C225.848 128.741 225.984 129.079 226.221 129.346C226.462 129.61 226.766 129.807 227.133 129.937C227.503 130.063 227.901 130.127 228.327 130.127C228.823 130.127 229.269 130.046 229.663 129.884C230.058 129.719 230.371 129.49 230.601 129.198C230.831 128.903 230.947 128.558 230.947 128.165C230.947 127.806 230.847 127.514 230.648 127.289C230.449 127.064 230.187 126.881 229.862 126.741C229.537 126.6 229.186 126.477 228.809 126.371L227.489 125.992C226.651 125.749 225.987 125.403 225.499 124.953C225.01 124.502 224.765 123.914 224.765 123.186C224.765 122.581 224.928 122.054 225.252 121.603C225.581 121.15 226.021 120.798 226.573 120.549C227.128 120.296 227.748 120.169 228.432 120.169C229.123 120.169 229.738 120.294 230.276 120.543C230.814 120.79 231.24 121.127 231.554 121.556C231.872 121.985 232.04 122.472 232.057 123.017H230.8ZM237.441 131.287C236.715 131.287 236.077 131.113 235.529 130.765C234.984 130.417 234.558 129.93 234.251 129.304C233.947 128.678 233.795 127.947 233.795 127.11C233.795 126.266 233.947 125.529 234.251 124.9C234.558 124.271 234.984 123.782 235.529 123.433C236.077 123.085 236.715 122.911 237.441 122.911C238.168 122.911 238.803 123.085 239.348 123.433C239.896 123.782 240.322 124.271 240.626 124.9C240.934 125.529 241.087 126.266 241.087 127.11C241.087 127.947 240.934 128.678 240.626 129.304C240.322 129.93 239.896 130.417 239.348 130.765C238.803 131.113 238.168 131.287 237.441 131.287ZM237.441 130.169C237.993 130.169 238.447 130.027 238.803 129.742C239.159 129.457 239.423 129.082 239.594 128.618C239.765 128.154 239.851 127.651 239.851 127.11C239.851 126.568 239.765 126.064 239.594 125.596C239.423 125.129 239.159 124.75 238.803 124.462C238.447 124.174 237.993 124.03 237.441 124.03C236.889 124.03 236.435 124.174 236.079 124.462C235.723 124.75 235.459 125.129 235.288 125.596C235.117 126.064 235.032 126.568 235.032 127.11C235.032 127.651 235.117 128.154 235.288 128.618C235.459 129.082 235.723 129.457 236.079 129.742C236.435 130.027 236.889 130.169 237.441 130.169ZM244.211 120.316V131.118H242.975V120.316H244.211ZM251.546 127.806V123.017H252.782V131.118H251.546V129.747H251.462C251.274 130.158 250.98 130.508 250.582 130.797C250.184 131.081 249.681 131.224 249.074 131.224C248.571 131.224 248.124 131.113 247.732 130.891C247.341 130.666 247.034 130.329 246.811 129.879C246.587 129.425 246.475 128.854 246.475 128.165V123.017H247.711V128.08C247.711 128.671 247.876 129.142 248.204 129.494C248.536 129.845 248.958 130.021 249.472 130.021C249.779 130.021 250.091 129.942 250.409 129.784C250.73 129.625 251 129.383 251.216 129.056C251.436 128.729 251.546 128.312 251.546 127.806ZM258.546 123.017V124.072H254.376V123.017H258.546ZM255.591 121.076H256.828V128.798C256.828 129.149 256.879 129.413 256.98 129.589C257.084 129.761 257.217 129.877 257.378 129.937C257.542 129.993 257.715 130.021 257.896 130.021C258.033 130.021 258.145 130.014 258.232 130C258.319 129.982 258.389 129.968 258.441 129.958L258.693 131.076C258.609 131.108 258.492 131.139 258.342 131.171C258.192 131.206 258.001 131.224 257.771 131.224C257.421 131.224 257.08 131.148 256.744 130.997C256.412 130.846 256.136 130.615 255.916 130.306C255.7 129.997 255.591 129.606 255.591 129.135V121.076ZM260.406 131.118V123.017H261.642V131.118H260.406ZM261.034 121.667C260.793 121.667 260.586 121.584 260.411 121.419C260.24 121.254 260.155 121.055 260.155 120.823C260.155 120.591 260.24 120.392 260.411 120.227C260.586 120.062 260.793 119.979 261.034 119.979C261.275 119.979 261.482 120.062 261.652 120.227C261.827 120.392 261.915 120.591 261.915 120.823C261.915 121.055 261.827 121.254 261.652 121.419C261.482 121.584 261.275 121.667 261.034 121.667ZM267.175 131.287C266.449 131.287 265.812 131.113 265.263 130.765C264.719 130.417 264.292 129.93 263.985 129.304C263.681 128.678 263.529 127.947 263.529 127.11C263.529 126.266 263.681 125.529 263.985 124.9C264.292 124.271 264.719 123.782 265.263 123.433C265.812 123.085 266.449 122.911 267.175 122.911C267.902 122.911 268.537 123.085 269.082 123.433C269.63 123.782 270.057 124.271 270.361 124.9C270.668 125.529 270.821 126.266 270.821 127.11C270.821 127.947 270.668 128.678 270.361 129.304C270.057 129.93 269.63 130.417 269.082 130.765C268.537 131.113 267.902 131.287 267.175 131.287ZM267.175 130.169C267.727 130.169 268.181 130.027 268.537 129.742C268.894 129.457 269.157 129.082 269.329 128.618C269.5 128.154 269.585 127.651 269.585 127.11C269.585 126.568 269.5 126.064 269.329 125.596C269.157 125.129 268.894 124.75 268.537 124.462C268.181 124.174 267.727 124.03 267.175 124.03C266.624 124.03 266.17 124.174 265.814 124.462C265.457 124.75 265.194 125.129 265.022 125.596C264.851 126.064 264.765 126.568 264.765 127.11C264.765 127.651 264.851 128.154 265.022 128.618C265.194 129.082 265.457 129.457 265.814 129.742C266.17 130.027 266.624 130.169 267.175 130.169ZM273.945 126.245V131.118H272.708V123.017H273.903V124.283H274.008C274.197 123.871 274.483 123.541 274.867 123.291C275.251 123.038 275.747 122.911 276.355 122.911C276.899 122.911 277.376 123.024 277.785 123.249C278.193 123.471 278.511 123.808 278.738 124.262C278.965 124.712 279.079 125.281 279.079 125.971V131.118H277.842V126.055C277.842 125.419 277.678 124.923 277.35 124.568C277.022 124.209 276.571 124.03 275.999 124.03C275.604 124.03 275.251 124.116 274.94 124.288C274.633 124.46 274.39 124.712 274.212 125.042C274.034 125.373 273.945 125.774 273.945 126.245ZM287.038 124.831L285.927 125.148C285.857 124.962 285.754 124.78 285.618 124.605C285.485 124.425 285.303 124.278 285.073 124.162C284.842 124.045 284.547 123.987 284.188 123.987C283.695 123.987 283.285 124.102 282.956 124.33C282.632 124.555 282.469 124.842 282.469 125.19C282.469 125.499 282.581 125.744 282.805 125.923C283.028 126.102 283.377 126.252 283.852 126.371L285.047 126.667C285.766 126.843 286.302 127.111 286.655 127.474C287.008 127.832 287.184 128.295 287.184 128.861C287.184 129.325 287.051 129.74 286.786 130.106C286.524 130.471 286.157 130.76 285.686 130.97C285.215 131.182 284.666 131.287 284.041 131.287C283.22 131.287 282.541 131.108 282.003 130.749C281.465 130.391 281.125 129.867 280.982 129.177L282.155 128.882C282.267 129.318 282.478 129.645 282.789 129.863C283.103 130.081 283.514 130.19 284.02 130.19C284.596 130.19 285.054 130.067 285.393 129.821C285.735 129.571 285.906 129.272 285.906 128.924C285.906 128.643 285.808 128.407 285.613 128.217C285.417 128.024 285.117 127.88 284.712 127.785L283.371 127.468C282.634 127.293 282.092 127.02 281.746 126.651C281.404 126.278 281.233 125.813 281.233 125.253C281.233 124.796 281.361 124.392 281.616 124.04C281.874 123.689 282.225 123.412 282.669 123.212C283.115 123.012 283.622 122.911 284.188 122.911C284.984 122.911 285.609 123.087 286.063 123.439C286.521 123.79 286.846 124.254 287.038 124.831Z" fill="#ED1C24"/>
<path d="M287.926 109.675L278.762 95.4344L287.228 83.4285H279.683L273.06 93.9957V76.4705H267.227V109.675H273.06V97.0941L280.161 109.675H287.926ZM250.01 87.8969H254.468C255.019 87.8969 255.497 87.951 255.902 88.059C256.302 88.167 256.507 88.4616 256.507 88.9527V109.679H263.101V86.3698C263.101 86.0703 263.018 85.7511 262.847 85.4123C262.677 85.0735 262.457 84.7543 262.179 84.4548C261.906 84.1552 261.604 83.9097 261.277 83.7182C260.95 83.5267 260.628 83.4334 260.311 83.4334H244.172V109.679H250.01V87.8969ZM240.051 83.4285H233.584V109.675H240.051V83.4285ZM240.051 76.5687H233.584V81.5478H240.051V76.5687ZM229.463 76.4705H223.249V109.675H229.463V76.4705ZM207.75 88.55V103.419C207.75 105.314 208.213 106.807 209.144 107.902C210.076 108.997 211.471 109.65 213.329 109.866C214.027 109.93 214.714 109.959 215.387 109.959C216.192 109.959 216.963 109.93 217.704 109.866C218.445 109.802 219.182 109.729 219.923 109.645V105.211C219.752 105.211 219.616 105.216 219.509 105.226C219.401 105.236 219.299 105.25 219.191 105.275C218.831 105.314 218.431 105.358 217.987 105.403C217.543 105.447 217.109 105.466 216.685 105.466C216.221 105.466 215.777 105.432 215.353 105.353C214.929 105.28 214.626 105.123 214.431 104.892C214.031 104.489 213.831 103.576 213.831 102.147V88.5549L213.671 89.5272L213.797 87.5385L213.861 84.0914V78.0762H207.867V84.0914M189.743 88.5697V109.675H196.147V88.5697L196.074 85.3141V84.4204L196.049 84.1012V82.9522C196.049 82.2304 196.239 81.7393 196.62 81.484C196.912 81.2532 197.317 81.0961 197.825 81.0224C198.332 80.9487 198.849 80.9095 199.375 80.9095C199.712 80.9095 200.068 80.9242 200.439 80.9586C200.809 80.988 201.141 81.0273 201.439 81.0715V76.8289C200.785 76.8093 200.151 76.7749 199.536 76.7356C199.01 76.6914 198.454 76.662 197.873 76.6423C197.293 76.6227 196.791 76.6129 196.366 76.6129C195.498 76.6129 194.664 76.6816 193.869 76.8191C193.074 76.9566 192.333 77.2414 191.655 77.6637C191.04 78.0909 190.567 78.6801 190.236 79.4363C189.904 80.1925 189.743 81.155 189.743 82.3236V84.111M174.38 87.9117C174.96 88.0295 175.472 88.1719 175.921 88.3438C176.214 88.4911 176.419 88.717 176.521 89.0116C176.628 89.3111 176.677 89.704 176.677 90.195V102.908C176.677 103.208 176.662 103.429 176.628 103.576C176.599 103.728 176.516 103.875 176.389 104.023C176.155 104.258 175.887 104.43 175.58 104.548C175.272 104.666 174.95 104.754 174.614 104.818C174.277 104.882 173.931 104.921 173.585 104.931C173.234 104.941 172.902 104.946 172.585 104.946C172.288 104.946 171.975 104.941 171.649 104.931C171.322 104.921 170.99 104.882 170.649 104.818C170.312 104.754 169.99 104.666 169.683 104.548C169.376 104.43 169.108 104.258 168.874 104.023C168.727 103.87 168.639 103.723 168.62 103.576C168.595 103.429 168.591 103.203 168.591 102.908V90.195C168.591 89.704 168.639 89.3111 168.732 89.0116C168.825 88.7121 169.034 88.4911 169.351 88.3438C169.815 88.1719 170.332 88.0295 170.893 87.9117C171.454 87.7938 172.019 87.7349 172.59 87.7349C173.204 87.7349 173.799 87.7938 174.38 87.9117ZM162.855 105.177C162.855 105.604 162.899 106.016 162.982 106.419C163.07 106.822 163.245 107.219 163.523 107.602C163.84 108.069 164.235 108.442 164.713 108.722C165.186 108.997 165.713 109.208 166.284 109.346C166.854 109.483 167.459 109.571 168.088 109.616C168.722 109.66 169.356 109.679 169.99 109.679H175.726C176.34 109.679 176.96 109.665 177.579 109.63C178.204 109.601 178.799 109.508 179.369 109.36C179.94 109.213 180.467 109.002 180.954 108.737C181.437 108.471 181.842 108.093 182.159 107.602C182.432 107.2 182.608 106.802 182.681 106.404C182.754 106.011 182.793 105.589 182.793 105.142V87.9952C182.793 87.5729 182.749 87.1604 182.666 86.7676C182.578 86.3747 182.393 85.9623 182.096 85.54C181.779 85.0735 181.384 84.7003 180.906 84.4204C180.432 84.1454 179.911 83.9343 179.355 83.7968C178.794 83.6593 178.204 83.5709 177.579 83.5267C176.955 83.4825 176.336 83.4629 175.726 83.4629H169.99C169.356 83.4629 168.722 83.4825 168.088 83.5267C167.454 83.5709 166.854 83.6593 166.284 83.7968C165.713 83.9343 165.191 84.1405 164.713 84.4204C164.235 84.6954 163.84 85.0686 163.523 85.54C163.25 85.9426 163.07 86.3502 162.982 86.7528C162.899 87.1555 162.855 87.5729 162.855 87.9952V105.177ZM152.384 109.675C153.423 109.675 154.359 109.601 155.193 109.454C156.027 109.306 156.749 109.085 157.354 108.8C157.958 108.516 158.422 108.147 158.753 107.701C159.08 107.254 159.246 106.723 159.246 106.105V98.2137C159.246 97.9829 159.241 97.7128 159.231 97.4182C159.222 97.1187 159.192 96.8535 159.153 96.6178C159.046 96.0237 158.836 95.5473 158.519 95.1987C158.202 94.8501 157.822 94.5751 157.373 94.3836C156.929 94.1921 156.451 94.0693 155.944 94.0153C155.437 93.9613 154.949 93.9367 154.481 93.9367H148.38C147.98 93.9367 147.658 93.9171 147.428 93.8729C147.194 93.8287 147.019 93.7501 146.907 93.6323C146.79 93.5144 146.716 93.3622 146.682 93.1707C146.653 92.9792 146.634 89.3062 146.634 88.9871C146.634 88.6482 146.677 88.3831 146.76 88.1916C146.848 88.0001 147.058 87.9019 147.394 87.9019H159.061V83.4334H147.024C146.409 83.4334 145.77 83.4629 145.102 83.512C144.434 83.566 143.814 83.6887 143.244 83.8802C142.673 84.0718 142.19 84.3615 141.8 84.7445C141.405 85.1275 141.171 85.648 141.088 86.306V95.346C141.088 95.7732 141.176 96.1808 141.356 96.5736C141.537 96.9664 141.786 97.3151 142.103 97.6097C142.42 97.9092 142.79 98.1449 143.215 98.3266C143.639 98.5083 144.092 98.6016 144.575 98.6016H151.36C151.886 98.6016 152.267 98.7391 152.501 99.0141C152.73 99.2891 152.847 103.031 152.847 103.389C152.847 104.263 152.306 104.7 151.233 104.7H141.088V109.679H152.384V109.675Z" fill="black"/>
<path d="M124.023 87.897H128.481C129.032 87.897 129.51 87.951 129.915 88.0542C130.315 88.1622 130.519 88.4568 130.519 88.9478V109.675H137.113V86.365C137.113 86.0654 137.03 85.7463 136.86 85.4075C136.689 85.0686 136.47 84.7495 136.192 84.4499C135.918 84.1553 135.616 83.9098 135.289 83.7183C134.962 83.5268 134.641 83.4335 134.324 83.4335H118.185V109.68H124.018V87.897H124.023Z" fill="#ED1C24"/>
<path d="M183.593 80.0109C187.207 86.3944 194.02 90.7106 201.843 90.7106C209.666 90.7106 216.475 86.3993 220.094 80.0109C214.797 83.3352 208.545 85.265 201.843 85.265C195.142 85.265 188.89 83.3401 183.593 80.0109Z" fill="#ED1C24"/>
<path d="M114.132 83.7183H107.665V109.964H114.132V83.7183Z" fill="#ED1C24"/>
<path d="M114.147 76.8535H107.679V81.8327H114.147V76.8535Z" fill="#ED1C24"/>
</svg>
