<svg width="116" height="57" viewBox="0 0 116 57" fill="none" xmlns="http://www.w3.org/2000/svg">
<path d="M17.2128 17.809C18.0757 19.7029 17.8009 21.2822 16.5799 22.9309C15.0861 24.9494 15.4402 24.6593 13.9261 26.6696C12.2472 28.8985 12.3591 30.7004 14.8256 32.0897C14.789 33.4503 12.8943 34.0101 11.8279 34.2696C10.4237 34.0632 9.46725 32.7128 9.01546 31.4666C8.37237 29.6953 8.59012 27.6564 9.34921 25.9504C12.0722 21.2147 12.9025 19.4189 15.6417 14.6914C16.1627 15.9213 16.6857 16.5832 17.2128 17.809Z" fill="black"/>
<path d="M14.8256 32.0894C14.8256 32.0894 14.5 31.9955 13.9505 31.8075C11.3416 30.9208 7.76388 29.3539 9.34921 25.9502C8.77735 26.9533 8.39883 28.03 8.13427 29.1087C7.35076 32.3203 9.36346 36.0937 10.6883 38.9826C11.3253 40.3718 13.1121 39.9775 13.9282 38.9662C14.8256 37.8528 15.7699 36.6311 16.6348 35.5462C17.9617 33.8832 16.3927 32.5348 14.8256 32.0894Z" fill="#ED1C24"/>
<path d="M16.2278 44.8645C15.3649 42.9706 15.6396 41.3913 16.8607 39.7426C18.3565 37.7241 18.0003 38.2022 19.5145 36.1919C21.1914 33.965 21.0815 32.159 18.6149 30.7718C18.6516 29.4111 20.5462 28.8513 21.6126 28.5898C23.0168 28.7962 23.9713 30.1487 24.4251 31.3929C25.0682 33.1621 24.8505 35.2031 24.0914 36.909C21.3684 41.6447 20.5381 42.8398 17.7989 47.5653" fill="black"/>
<path d="M18.6149 30.772C18.6149 30.772 18.9405 30.866 19.49 31.054C22.101 31.9406 25.6767 33.5076 24.0913 36.9113C24.6652 35.9102 25.0417 34.8315 25.3063 33.7528C26.0898 30.5412 24.0771 26.7677 22.7522 23.8789C22.1153 22.4897 20.3284 22.8819 19.5124 23.8932C18.6149 25.0067 17.6706 26.2284 16.8057 27.3132C15.4788 28.9783 17.0479 30.3267 18.6149 30.772Z" fill="#ED1C24"/>
<path d="M17.0927 12.1558C17.0927 12.1558 17.5851 13.3387 18.389 14.6932C19.2315 16.1111 19.0199 17.2756 19.0199 17.2756L21.637 12.1578L19.1786 8.3374L17.0927 12.1558Z" fill="black"/>
<path d="M20.4567 17.7784L21.8609 20.2443L22.9619 18.1563L21.58 15.6353L20.4567 17.7784Z" fill="#ED1C24"/>
<path d="M22.1459 14.6096L22.8398 15.8946L23.3852 14.8772L22.6994 13.5615L22.1459 14.6096Z" fill="#ED1C24"/>
<path d="M22.8582 20.5529L23.5521 21.84L24.0955 20.8205L23.4117 19.5068L22.8582 20.5529Z" fill="black"/>
<path d="M73.737 38.4089V42.9031H73.1948V38.4089H73.737ZM74.5789 38.8917V38.4089H77.9366V38.8917H76.5287V42.9031H75.9868V38.8917H74.5789ZM82.9525 39.5326C82.9264 39.3101 82.82 39.1374 82.6334 39.0147C82.4469 38.8917 82.2182 38.8304 81.9471 38.8304C81.7489 38.8304 81.5755 38.8625 81.4268 38.9268C81.2796 38.9912 81.1644 39.0798 81.0814 39.1924C80.9998 39.305 80.9591 39.4331 80.9591 39.5765C80.9591 39.6964 80.9874 39.7996 81.0444 39.8858C81.1026 39.9706 81.1768 40.0417 81.2672 40.0987C81.3576 40.1543 81.4524 40.2004 81.5515 40.237C81.6504 40.2721 81.7416 40.3005 81.8246 40.3226L82.2793 40.4454C82.3959 40.476 82.5255 40.5185 82.6684 40.5727C82.8126 40.6268 82.9504 40.7008 83.0815 40.7943C83.2142 40.8865 83.3235 41.005 83.4093 41.1498C83.4954 41.2947 83.5384 41.4724 83.5384 41.683C83.5384 41.926 83.4751 42.1454 83.3483 42.3413C83.2229 42.5374 83.0394 42.6931 82.7974 42.8087C82.5568 42.9244 82.2648 42.9822 81.9209 42.9822C81.6001 42.9822 81.3226 42.9301 81.0879 42.8263C80.8549 42.7225 80.6711 42.5777 80.5372 42.3918C80.4045 42.206 80.3294 41.9903 80.3119 41.7445H80.8716C80.8862 41.9141 80.943 42.0547 81.0421 42.1658C81.1427 42.2755 81.2694 42.3574 81.4225 42.4116C81.5769 42.4643 81.743 42.4906 81.9209 42.4906C82.1278 42.4906 82.3136 42.4569 82.4783 42.3897C82.6429 42.3209 82.7734 42.2259 82.8694 42.1043C82.9657 41.9815 83.0137 41.8381 83.0137 41.6743C83.0137 41.5251 82.9722 41.4036 82.8892 41.31C82.8061 41.2164 82.6969 41.1402 82.5613 41.0818C82.4258 41.0234 82.2793 40.9721 82.1219 40.9281L81.571 40.7702C81.2214 40.6693 80.9444 40.5251 80.7405 40.3379C80.5364 40.1506 80.4344 39.9056 80.4344 39.6028C80.4344 39.3511 80.5022 39.1317 80.6378 38.9444C80.7747 38.7558 80.9583 38.6093 81.1886 38.5055C81.4202 38.4003 81.6789 38.3476 81.9646 38.3476C82.253 38.3476 82.5096 38.3995 82.7339 38.5033C82.9584 38.6059 83.1362 38.7462 83.2673 38.9248C83.4 39.1031 83.47 39.3058 83.4771 39.5326H82.9525ZM85.7236 42.9734C85.4206 42.9734 85.1546 42.9009 84.9259 42.756C84.6986 42.6112 84.5207 42.4087 84.3925 42.1482C84.2657 41.888 84.2024 41.5835 84.2024 41.2354C84.2024 40.8842 84.2657 40.5778 84.3925 40.3159C84.5207 40.0541 84.6986 39.8507 84.9259 39.7058C85.1546 39.561 85.4206 39.4886 85.7236 39.4886C86.0269 39.4886 86.292 39.561 86.5194 39.7058C86.7481 39.8507 86.926 40.0541 87.0528 40.3159C87.181 40.5778 87.2451 40.8842 87.2451 41.2354C87.2451 41.5835 87.181 41.888 87.0528 42.1482C86.926 42.4087 86.7481 42.6112 86.5194 42.756C86.292 42.9009 86.0269 42.9734 85.7236 42.9734ZM85.7236 42.5082C85.954 42.5082 86.1435 42.449 86.292 42.3305C86.4406 42.212 86.5507 42.0561 86.6221 41.863C86.6936 41.67 86.7292 41.4608 86.7292 41.2354C86.7292 41.0101 86.6936 40.8003 86.6221 40.6056C86.5507 40.4111 86.4406 40.2537 86.292 40.1338C86.1435 40.0139 85.954 39.9538 85.7236 39.9538C85.4935 39.9538 85.304 40.0139 85.1554 40.1338C85.0067 40.2537 84.8968 40.4111 84.8253 40.6056C84.7539 40.8003 84.7183 41.0101 84.7183 41.2354C84.7183 41.4608 84.7539 41.67 84.8253 41.863C84.8968 42.0561 85.0067 42.212 85.1554 42.3305C85.304 42.449 85.4935 42.5082 85.7236 42.5082ZM88.5483 38.4089V42.9031H88.0326V38.4089H88.5483ZM91.6091 41.5251V39.5326H92.125V42.9031H91.6091V42.3325H91.5743C91.4956 42.5037 91.373 42.6494 91.207 42.7693C91.0409 42.8878 90.8311 42.947 90.5775 42.947C90.3677 42.947 90.1811 42.9009 90.0179 42.8087C89.8547 42.7152 89.7265 42.5746 89.6332 42.3875C89.5398 42.1987 89.4932 41.9611 89.4932 41.6743V39.5326H90.0091V41.6391C90.0091 41.8849 90.0777 42.081 90.2147 42.2273C90.3531 42.3736 90.5293 42.4467 90.7436 42.4467C90.8718 42.4467 91.0022 42.4138 91.1349 42.348C91.2688 42.282 91.3812 42.1811 91.4715 42.0451C91.5633 41.909 91.6091 41.7357 91.6091 41.5251ZM94.5301 39.5326V39.9714H92.7901V39.5326H94.5301ZM93.2972 38.725H93.8131V41.9376C93.8131 42.0839 93.8343 42.1936 93.8766 42.2667C93.9202 42.3384 93.9755 42.3866 94.0427 42.4116C94.111 42.4351 94.1833 42.4467 94.259 42.4467C94.3158 42.4467 94.3626 42.4439 94.399 42.4379C94.4354 42.4306 94.4645 42.4246 94.4863 42.4204L94.5913 42.8856C94.5563 42.8988 94.5075 42.9119 94.4448 42.925C94.3821 42.9397 94.3028 42.947 94.2065 42.947C94.0608 42.947 93.9181 42.9156 93.7781 42.8527C93.6397 42.7897 93.5245 42.6939 93.4328 42.5652C93.3424 42.4365 93.2972 42.2741 93.2972 42.078V38.725ZM95.3061 42.9031V39.5326H95.8219V42.9031H95.3061ZM95.5684 38.9707C95.4678 38.9707 95.3811 38.9364 95.3083 38.8676C95.2369 38.7989 95.2012 38.7162 95.2012 38.6197C95.2012 38.5231 95.2369 38.4404 95.3083 38.3717C95.3811 38.3029 95.4678 38.2686 95.5684 38.2686C95.6689 38.2686 95.755 38.3029 95.8262 38.3717C95.8993 38.4404 95.9357 38.5231 95.9357 38.6197C95.9357 38.7162 95.8993 38.7989 95.8262 38.8676C95.755 38.9364 95.6689 38.9707 95.5684 38.9707ZM98.1308 42.9734C97.8277 42.9734 97.5617 42.9009 97.333 42.756C97.1057 42.6112 96.9278 42.4087 96.7996 42.1482C96.6728 41.888 96.6093 41.5835 96.6093 41.2354C96.6093 40.8842 96.6728 40.5778 96.7996 40.3159C96.9278 40.0541 97.1057 39.8507 97.333 39.7058C97.5617 39.561 97.8277 39.4886 98.1308 39.4886C98.434 39.4886 98.6992 39.561 98.9265 39.7058C99.1552 39.8507 99.3331 40.0541 99.4599 40.3159C99.5881 40.5778 99.6522 40.8842 99.6522 41.2354C99.6522 41.5835 99.5881 41.888 99.4599 42.1482C99.3331 42.4087 99.1552 42.6112 98.9265 42.756C98.6992 42.9009 98.434 42.9734 98.1308 42.9734ZM98.1308 42.5082C98.3611 42.5082 98.5504 42.449 98.6992 42.3305C98.8477 42.212 98.9578 42.0561 99.0292 41.863C99.1007 41.67 99.1363 41.4608 99.1363 41.2354C99.1363 41.0101 99.1007 40.8003 99.0292 40.6056C98.9578 40.4111 98.8477 40.2537 98.6992 40.1338C98.5504 40.0139 98.3611 39.9538 98.1308 39.9538C97.9006 39.9538 97.7111 40.0139 97.5626 40.1338C97.4138 40.2537 97.3039 40.4111 97.2325 40.6056C97.161 40.8003 97.1252 41.0101 97.1252 41.2354C97.1252 41.4608 97.161 41.67 97.2325 41.863C97.3039 42.0561 97.4138 42.212 97.5626 42.3305C97.7111 42.449 97.9006 42.5082 98.1308 42.5082ZM100.955 40.8754V42.9031H100.44V39.5326H100.938V40.0593H100.982C101.06 39.888 101.18 39.7506 101.34 39.6466C101.5 39.5413 101.707 39.4886 101.961 39.4886C102.188 39.4886 102.387 39.5354 102.558 39.629C102.728 39.7213 102.861 39.8617 102.956 40.0505C103.05 40.2376 103.098 40.4746 103.098 40.7614V42.9031H102.582V40.7966C102.582 40.5318 102.513 40.3255 102.376 40.1777C102.239 40.0284 102.051 39.9538 101.812 39.9538C101.648 39.9538 101.5 39.9898 101.371 40.0613C101.243 40.133 101.141 40.2376 101.067 40.3751C100.993 40.5126 100.955 40.6795 100.955 40.8754ZM106.419 40.2875L105.955 40.419C105.926 40.3416 105.883 40.2662 105.826 40.1931C105.771 40.1185 105.695 40.057 105.599 40.0088C105.503 39.9604 105.38 39.9363 105.23 39.9363C105.024 39.9363 104.853 39.9839 104.716 40.0789C104.58 40.1726 104.512 40.2917 104.512 40.4366C104.512 40.5653 104.559 40.667 104.652 40.7416C104.746 40.8162 104.891 40.8785 105.09 40.9281L105.588 41.0511C105.888 41.1243 106.112 41.236 106.259 41.3868C106.406 41.5359 106.48 41.7284 106.48 41.964C106.48 42.157 106.424 42.3297 106.314 42.4819C106.204 42.6339 106.051 42.754 105.855 42.8416C105.658 42.9295 105.429 42.9734 105.168 42.9734C104.826 42.9734 104.542 42.8988 104.318 42.7495C104.094 42.6003 103.952 42.3824 103.892 42.0955L104.381 41.9727C104.428 42.1542 104.516 42.2902 104.646 42.3809C104.777 42.4716 104.948 42.517 105.16 42.517C105.4 42.517 105.591 42.4657 105.732 42.3634C105.875 42.2594 105.947 42.1352 105.947 41.9903C105.947 41.8732 105.906 41.7752 105.824 41.6961C105.742 41.6158 105.617 41.5558 105.448 41.5163L104.888 41.3846C104.581 41.3114 104.355 41.198 104.211 41.0444C104.068 40.8893 103.997 40.6957 103.997 40.463C103.997 40.2727 104.05 40.1046 104.156 39.9583C104.264 39.812 104.41 39.697 104.596 39.6137C104.782 39.5303 104.993 39.4886 105.23 39.4886C105.562 39.4886 105.823 39.5618 106.012 39.7081C106.203 39.8543 106.338 40.0474 106.419 40.2875Z" fill="#ED1C24"/>
<path d="M106.789 33.9813L102.965 28.0566L106.498 23.0614H103.35L100.586 27.458V20.1665H98.1523V33.9813H100.586V28.7472L103.549 33.9813H106.789ZM90.9684 24.9206H92.8285C93.0584 24.9206 93.2579 24.9431 93.4268 24.988C93.5937 25.033 93.6791 25.1555 93.6791 25.3598V33.9834H96.4306V24.2852C96.4306 24.1606 96.396 24.0278 96.3248 23.8868C96.2535 23.7459 96.162 23.6131 96.046 23.4884C95.932 23.3638 95.8058 23.2617 95.6695 23.182C95.5331 23.1023 95.3988 23.0635 95.2665 23.0635H88.5324V33.9834H90.9684V24.9206ZM86.8128 23.0614H84.1142V33.9813H86.8128V23.0614ZM86.8128 20.2074H84.1142V22.279H86.8128V20.2074ZM82.3946 20.1665H79.8019V33.9813H82.3946V20.1665ZM73.3344 25.1923V31.3785C73.3344 32.1671 73.5277 32.7882 73.9164 33.2438C74.3051 33.6994 74.8871 33.9711 75.6625 34.061C75.9535 34.0876 76.2405 34.0998 76.5213 34.0998C76.8571 34.0998 77.1787 34.0876 77.488 34.061C77.7973 34.0345 78.1046 34.0038 78.414 33.9691V32.1242C78.3427 32.1242 78.2857 32.1263 78.241 32.1304C78.1962 32.1345 78.1535 32.1406 78.1087 32.1508C77.9581 32.1671 77.7912 32.1855 77.606 32.2039C77.4208 32.2223 77.2397 32.2305 77.0627 32.2305C76.8693 32.2305 76.6841 32.2162 76.5071 32.1835C76.33 32.1528 76.2038 32.0875 76.1224 31.9914C75.9556 31.8239 75.8721 31.4439 75.8721 30.8494V25.1944L75.805 25.5989L75.8579 24.7715L75.8843 23.3373V20.8346H73.3832V23.3373M65.8208 25.2005V33.9813H68.4929V25.2005L68.4624 23.846V23.4741L68.4522 23.3413V22.8633C68.4522 22.563 68.5316 22.3587 68.6903 22.2524C68.8124 22.1564 68.9813 22.091 69.193 22.0604C69.4046 22.0297 69.6203 22.0134 69.8401 22.0134C69.9806 22.0134 70.1291 22.0195 70.2838 22.0338C70.4384 22.0461 70.5768 22.0624 70.701 22.0808V20.3156C70.4283 20.3075 70.1637 20.2932 69.9073 20.2768C69.6875 20.2584 69.4555 20.2462 69.2133 20.238C68.9712 20.2298 68.7615 20.2258 68.5845 20.2258C68.2222 20.2258 67.8742 20.2544 67.5425 20.3116C67.2108 20.3688 66.9015 20.4873 66.6186 20.663C66.3622 20.8407 66.1648 21.0859 66.0264 21.4005C65.888 21.7151 65.8208 22.1155 65.8208 22.6018V23.3454M59.4103 24.9267C59.6525 24.9758 59.8662 25.035 60.0534 25.1065C60.1755 25.1678 60.261 25.2618 60.3037 25.3844C60.3485 25.509 60.3688 25.6724 60.3688 25.8767V31.1661C60.3688 31.2907 60.3627 31.3826 60.3485 31.4439C60.3363 31.5073 60.3017 31.5685 60.2488 31.6298C60.1511 31.7279 60.0392 31.7994 59.9109 31.8484C59.7827 31.8975 59.6484 31.9342 59.508 31.9608C59.3676 31.9874 59.2231 32.0037 59.0786 32.0078C58.9321 32.0119 58.7937 32.0139 58.6614 32.0139C58.5373 32.0139 58.407 32.0119 58.2707 32.0078C58.1343 32.0037 57.9959 31.9874 57.8535 31.9608C57.713 31.9342 57.5787 31.8975 57.4505 31.8484C57.3223 31.7994 57.2104 31.7279 57.1127 31.6298C57.0516 31.5665 57.015 31.5052 57.0069 31.4439C56.9967 31.3826 56.9947 31.2887 56.9947 31.1661V25.8767C56.9947 25.6724 57.015 25.509 57.0537 25.3844C57.0923 25.2597 57.1799 25.1678 57.3121 25.1065C57.5055 25.035 57.7212 24.9758 57.9552 24.9267C58.1893 24.8777 58.4253 24.8532 58.6634 24.8532C58.9199 24.8532 59.1681 24.8777 59.4103 24.9267ZM54.6014 32.1099C54.6014 32.2877 54.6197 32.4593 54.6543 32.6268C54.6909 32.7944 54.7642 32.9598 54.8802 33.1192C55.0125 33.3133 55.1773 33.4685 55.3768 33.585C55.5742 33.6994 55.794 33.7873 56.0321 33.8445C56.2702 33.9017 56.5225 33.9384 56.785 33.9568C57.0496 33.9752 57.3142 33.9834 57.5787 33.9834H59.972C60.2284 33.9834 60.4869 33.9773 60.7453 33.963C61.0058 33.9507 61.2541 33.9119 61.4922 33.8506C61.7303 33.7893 61.9501 33.7015 62.1536 33.5911C62.3551 33.4808 62.524 33.3235 62.6563 33.1192C62.7702 32.9517 62.8435 32.7862 62.874 32.6207C62.9046 32.4573 62.9208 32.2816 62.9208 32.0956V24.9615C62.9208 24.7858 62.9025 24.6141 62.8679 24.4507C62.8313 24.2873 62.754 24.1156 62.6298 23.9399C62.4975 23.7459 62.3327 23.5906 62.1333 23.4741C61.9359 23.3597 61.7181 23.2719 61.4861 23.2147C61.2521 23.1575 61.0058 23.1207 60.7453 23.1023C60.4848 23.0839 60.2264 23.0758 59.972 23.0758H57.5787C57.3142 23.0758 57.0496 23.0839 56.785 23.1023C56.5205 23.1207 56.2702 23.1575 56.0321 23.2147C55.794 23.2719 55.5762 23.3577 55.3768 23.4741C55.1773 23.5885 55.0125 23.7438 54.8802 23.9399C54.7662 24.1075 54.6909 24.277 54.6543 24.4446C54.6197 24.6121 54.6014 24.7858 54.6014 24.9615V32.1099ZM50.2321 33.9813C50.6655 33.9813 51.0563 33.9507 51.4043 33.8894C51.7523 33.8281 52.0535 33.7362 52.3058 33.6177C52.5582 33.4992 52.7515 33.346 52.8899 33.1601C53.0262 32.9741 53.0954 32.7535 53.0954 32.4961V29.213C53.0954 29.1169 53.0934 29.0046 53.0893 28.882C53.0853 28.7574 53.073 28.647 53.0568 28.549C53.012 28.3018 52.9245 28.1036 52.7922 27.9585C52.6599 27.8135 52.5012 27.6991 52.314 27.6194C52.1288 27.5397 51.9293 27.4887 51.7177 27.4662C51.506 27.4437 51.3025 27.4335 51.1072 27.4335H48.5613C48.3944 27.4335 48.2601 27.4253 48.1644 27.4069C48.0667 27.3885 47.9935 27.3559 47.9467 27.3068C47.8978 27.2578 47.8673 27.1945 47.853 27.1148C47.8408 27.0351 47.8327 25.5069 47.8327 25.3741C47.8327 25.2332 47.851 25.1228 47.8856 25.0432C47.9222 24.9635 48.0097 24.9226 48.1502 24.9226H53.0181V23.0635H47.9955C47.7391 23.0635 47.4725 23.0758 47.1937 23.0962C46.9149 23.1187 46.6564 23.1697 46.4183 23.2494C46.1802 23.3291 45.9787 23.4496 45.8159 23.609C45.6511 23.7683 45.5534 23.9849 45.5188 24.2587V28.0198C45.5188 28.1976 45.5554 28.3671 45.6307 28.5306C45.706 28.694 45.8098 28.8391 45.9421 28.9617C46.0744 29.0863 46.229 29.1844 46.4061 29.2599C46.5831 29.3355 46.7724 29.3744 46.9739 29.3744H49.8047C50.0245 29.3744 50.1832 29.4316 50.2809 29.546C50.3766 29.6604 50.4254 31.2171 50.4254 31.3663C50.4254 31.7299 50.1995 31.9118 49.7518 31.9118H45.5188V33.9834H50.2321V33.9813Z" fill="black"/>
<path d="M38.398 24.9206H40.2581C40.4881 24.9206 40.6875 24.943 40.8564 24.986C41.0233 25.0309 41.1088 25.1535 41.1088 25.3578V33.9813H43.8602V24.2832C43.8602 24.1585 43.8256 24.0257 43.7544 23.8848C43.6832 23.7438 43.5916 23.611 43.4756 23.4864C43.3616 23.3638 43.2354 23.2616 43.0991 23.182C42.9627 23.1023 42.8284 23.0635 42.6961 23.0635H35.962V33.9834H38.396V24.9206H38.398Z" fill="#ED1C24"/>
<path d="M63.2546 21.6396C64.7626 24.2956 67.6057 26.0914 70.8699 26.0914C74.1342 26.0914 76.9752 24.2976 78.4852 21.6396C76.2751 23.0228 73.6661 23.8257 70.8699 23.8257C68.0737 23.8257 65.4647 23.0248 63.2546 21.6396Z" fill="#ED1C24"/>
<path d="M34.2709 23.1821H31.5724V34.102H34.2709V23.1821Z" fill="#ED1C24"/>
<path d="M34.277 20.3257H31.5785V22.3973H34.277V20.3257Z" fill="#ED1C24"/>
</svg>
